<mxfile host="app.diagrams.net" modified="2022-10-19T10:10:43.618Z" agent="5.0 (Windows NT 10.0; Win64; x64) AppleWebKit/537.36 (KHTML, like Gecko) Chrome/106.0.0.0 Safari/537.36" etag="1Cv1Y62J8z6vAaGFIkjv" version="20.4.1" type="github">
  <diagram id="BarEqBVb0WC6vREw9uG_" name="Page-1">
    <mxGraphModel dx="1422" dy="794" grid="1" gridSize="10" guides="1" tooltips="1" connect="1" arrows="1" fold="1" page="1" pageScale="1" pageWidth="1100" pageHeight="850" math="0" shadow="0">
      <root>
        <mxCell id="0" />
        <mxCell id="1" parent="0" />
        <mxCell id="vLz9hYa6SVL2EcWj9cTR-38" value="&lt;div style=&quot;&quot;&gt;Mobile Devices&lt;/div&gt;" style="rounded=1;whiteSpace=wrap;html=1;align=left;fillOpacity=0;" vertex="1" parent="1">
          <mxGeometry x="7.03" y="550" width="200" height="200" as="geometry" />
        </mxCell>
        <mxCell id="vLz9hYa6SVL2EcWj9cTR-35" value="&lt;div style=&quot;&quot;&gt;&lt;span style=&quot;background-color: initial;&quot;&gt;Frontend&lt;br&gt;User Interface&lt;/span&gt;&lt;/div&gt;" style="rounded=1;whiteSpace=wrap;html=1;align=left;fillOpacity=0;" vertex="1" parent="1">
          <mxGeometry x="7.030000000000001" y="50" width="200" height="300" as="geometry" />
        </mxCell>
        <mxCell id="vLz9hYa6SVL2EcWj9cTR-2" value="" style="verticalLabelPosition=bottom;html=1;verticalAlign=top;align=center;strokeColor=none;fillColor=#00BEF2;shape=mxgraph.azure.mobile_services;pointerEvents=1;" vertex="1" parent="1">
          <mxGeometry x="114.02000000000001" y="667" width="32.5" height="50" as="geometry" />
        </mxCell>
        <mxCell id="vLz9hYa6SVL2EcWj9cTR-4" value="" style="sketch=0;aspect=fixed;pointerEvents=1;shadow=0;dashed=0;html=1;strokeColor=none;labelPosition=center;verticalLabelPosition=bottom;verticalAlign=top;align=center;fillColor=#00188D;shape=mxgraph.azure.tablet;" vertex="1" parent="1">
          <mxGeometry x="96.75" y="580" width="67.03" height="49.6" as="geometry" />
        </mxCell>
        <mxCell id="vLz9hYa6SVL2EcWj9cTR-24" style="edgeStyle=orthogonalEdgeStyle;rounded=0;orthogonalLoop=1;jettySize=auto;html=1;" edge="1" parent="1" source="vLz9hYa6SVL2EcWj9cTR-5" target="vLz9hYa6SVL2EcWj9cTR-23">
          <mxGeometry relative="1" as="geometry" />
        </mxCell>
        <mxCell id="vLz9hYa6SVL2EcWj9cTR-5" value="Kafka Queue" style="sketch=0;outlineConnect=0;fontColor=#232F3E;gradientColor=none;strokeColor=#232F3E;fillColor=#ffffff;dashed=0;verticalLabelPosition=bottom;verticalAlign=top;align=center;html=1;fontSize=12;fontStyle=0;aspect=fixed;shape=mxgraph.aws4.resourceIcon;resIcon=mxgraph.aws4.queue;" vertex="1" parent="1">
          <mxGeometry x="322.27" y="597" width="60" height="60" as="geometry" />
        </mxCell>
        <mxCell id="vLz9hYa6SVL2EcWj9cTR-36" style="edgeStyle=orthogonalEdgeStyle;rounded=0;orthogonalLoop=1;jettySize=auto;html=1;" edge="1" parent="1" source="vLz9hYa6SVL2EcWj9cTR-23" target="vLz9hYa6SVL2EcWj9cTR-25">
          <mxGeometry relative="1" as="geometry" />
        </mxCell>
        <mxCell id="vLz9hYa6SVL2EcWj9cTR-23" value="rest api" style="sketch=0;pointerEvents=1;shadow=0;dashed=0;html=1;strokeColor=none;fillColor=#DF8C42;labelPosition=center;verticalLabelPosition=bottom;verticalAlign=top;align=center;outlineConnect=0;shape=mxgraph.veeam2.restful_api;" vertex="1" parent="1">
          <mxGeometry x="490" y="587" width="80" height="80" as="geometry" />
        </mxCell>
        <mxCell id="vLz9hYa6SVL2EcWj9cTR-25" value="" style="aspect=fixed;html=1;points=[];align=center;image;fontSize=12;image=img/lib/azure2/databases/Azure_Database_PostgreSQL_Server.svg;" vertex="1" parent="1">
          <mxGeometry x="790" y="162.6" width="63.3" height="84.4" as="geometry" />
        </mxCell>
        <mxCell id="vLz9hYa6SVL2EcWj9cTR-26" value="" style="sketch=0;aspect=fixed;pointerEvents=1;shadow=0;dashed=0;html=1;strokeColor=none;labelPosition=center;verticalLabelPosition=bottom;verticalAlign=top;align=center;fillColor=#00188D;shape=mxgraph.azure.computer" vertex="1" parent="1">
          <mxGeometry x="86.01" y="80" width="88.52" height="79.67" as="geometry" />
        </mxCell>
        <mxCell id="vLz9hYa6SVL2EcWj9cTR-27" value="" style="sketch=0;aspect=fixed;pointerEvents=1;shadow=0;dashed=0;html=1;strokeColor=none;labelPosition=center;verticalLabelPosition=bottom;verticalAlign=top;align=center;fillColor=#00188D;shape=mxgraph.azure.tablet;" vertex="1" parent="1">
          <mxGeometry x="96.75" y="179.99999999999994" width="67.03" height="49.6" as="geometry" />
        </mxCell>
        <mxCell id="vLz9hYa6SVL2EcWj9cTR-30" value="" style="verticalLabelPosition=bottom;html=1;verticalAlign=top;align=center;strokeColor=none;fillColor=#00BEF2;shape=mxgraph.azure.mobile_services;pointerEvents=1;" vertex="1" parent="1">
          <mxGeometry x="114.02" y="250" width="32.5" height="50" as="geometry" />
        </mxCell>
      </root>
    </mxGraphModel>
  </diagram>
</mxfile>
